<svg width="28" height="27" viewBox="0 0 28 27" fill="none" xmlns="http://www.w3.org/2000/svg">
<path d="M3.61125 15.1875H8.75875C10.1656 16.2253 11.985 16.875 14 16.875C16.015 16.875 17.8344 16.2253 19.2412 15.1875H24.3888C24.5593 15.1873 24.7269 15.1504 24.8757 15.0802C25.0245 15.0099 25.1496 14.9088 25.239 14.7863C25.3284 14.6638 25.3793 14.5241 25.3867 14.3803C25.394 14.2366 25.3578 14.0937 25.2812 13.9651C24.3294 12.391 23.3263 10.6835 22.6469 8.92688C22.1737 7.70397 22 6.41197 22 5.12578V2.53125L14 0L6 2.53125V5.12578C6 6.41197 5.82812 7.70397 5.35437 8.92688C4.67375 10.6835 3.67062 12.3926 2.71875 13.9651C2.64224 14.0937 2.60595 14.2366 2.61335 14.3803C2.62074 14.5241 2.67157 14.6638 2.761 14.7863C2.85043 14.9088 2.9755 15.0099 3.12431 15.0802C3.27312 15.1504 3.44075 15.1873 3.61125 15.1875ZM11.5 3.77947C11.5 3.70954 11.5329 3.64248 11.5915 3.59303C11.6501 3.54358 11.7296 3.5158 11.8125 3.5158H13.1669V2.37305C13.1669 2.30312 13.1998 2.23605 13.2584 2.1866C13.317 2.13715 13.3965 2.10938 13.4794 2.10938H14.5206C14.6035 2.10938 14.683 2.13715 14.7416 2.1866C14.8002 2.23605 14.8331 2.30312 14.8331 2.37305V3.5158H16.1875C16.2704 3.5158 16.3499 3.54358 16.4085 3.59303C16.4671 3.64248 16.5 3.70954 16.5 3.77947V4.65803C16.5 4.72796 16.4671 4.79502 16.4085 4.84447C16.3499 4.89392 16.2704 4.9217 16.1875 4.9217H14.8331V6.06445C14.8331 6.13438 14.8002 6.20145 14.7416 6.2509C14.683 6.30035 14.6035 6.32812 14.5206 6.32812H13.4794C13.3965 6.32812 13.317 6.30035 13.2584 6.2509C13.1998 6.20145 13.1669 6.13438 13.1669 6.06445V4.9217H11.8125C11.7296 4.9217 11.6501 4.89392 11.5915 4.84447C11.5329 4.79502 11.5 4.72796 11.5 4.65803V3.77947ZM9 8.4375H19V10.125C19 11.2439 18.4732 12.3169 17.5355 13.1081C16.5979 13.8993 15.3261 14.3438 14 14.3438C12.6739 14.3438 11.4021 13.8993 10.4645 13.1081C9.52678 12.3169 9 11.2439 9 10.125V8.4375ZM19.9631 16.875L14 21.9053L8.03687 16.875C3.56875 17.0385 0 20.1234 0 23.9303C0 24.7445 0.383301 25.5252 1.06558 26.1009C1.74786 26.6766 2.67323 27 3.63812 27H24.3619C25.3268 27 26.2521 26.6766 26.9344 26.1009C27.6167 25.5252 28 24.7445 28 23.9303C28 20.1234 24.4312 17.0385 19.9631 16.875Z" fill="#43969C"/>
</svg>
