<svg width="24" height="28" viewBox="0 0 24 28" fill="none" xmlns="http://www.w3.org/2000/svg">
<path d="M7.49999 3.9375C7.49999 1.76285 9.51467 0 12 0C14.4853 0 16.5 1.76285 16.5 3.9375C16.5 6.11209 14.4853 7.875 12 7.875C9.51467 7.875 7.49999 6.11209 7.49999 3.9375ZM23.4142 4.01259C22.6332 3.32916 21.3668 3.32916 20.5858 4.01259L15.1715 8.75H8.82836L3.41417 4.01259C2.63317 3.32916 1.3668 3.32916 0.585797 4.01259C-0.195266 4.69602 -0.195266 5.80404 0.585797 6.48747L6.49999 11.6623V26.25C6.49999 27.2165 7.39542 28 8.49999 28H9.49999C10.6045 28 11.5 27.2165 11.5 26.25V20.125H12.5V26.25C12.5 27.2165 13.3954 28 14.5 28H15.5C16.6045 28 17.5 27.2165 17.5 26.25V11.6623L23.4142 6.48741C24.1952 5.80398 24.1952 4.69602 23.4142 4.01259Z" fill="#43969C"/>
</svg>
